# xmcd CD database file
#
# Track frame offsets:
#	150
#	15287
#	28428
#	45221
#	60238
#	72056
#	86042
#	102173
#	114033
#	121765
#
# Disc length: 1807 seconds
#
# Revision: 0
# Processed by: cddbd v1.5.1PL0 Copyright (c) Steve Scherf et al.
# Submitted via: CDex 1.51
#
DISCID=69070d0a
DTITLE=Matt Hendricks - Ghetto Blues Hotel
DYEAR=2004
DGENRE=Blues
TTITLE0=Ol' Milwaukee (What a Place to Be)
TTITLE1=Crawdaddy
TTITLE2=If You See Me
TTITLE3=Serenade
TTITLE4=Red Bull and Gin
TTITLE5=Big Bad Bill (Is Sweet William Now)
TTITLE6=Motherless Children
TTITLE7=Red Hot Java Blues
TTITLE8=Another Saturday Night
TTITLE9=Farewell
EXTD=YEAR: 2004
EXTT0=
EXTT1=
EXTT2=
EXTT3=
EXTT4=
EXTT5=
EXTT6=
EXTT7=
EXTT8=
EXTT9=
PLAYORDER=
